<?xml version="1.0" encoding="UTF-8"?><svg id="Layer_2" xmlns="http://www.w3.org/2000/svg" width="288.26" height="288.96" viewBox="0 0 288.26 288.96"><defs><style>.cls-1{fill:#fff;stroke-width:0px;}</style></defs><g id="Layer_1-2"><path class="cls-1" d="m4.23,175.09c1.23,4.21,2.25,8.49,3.7,12.61,2.21,6.26,5.82,11.56,11.71,15,1.39.81,3.18,1.72,4.26.17.61-.88.25-2.77-.22-4-.85-2.22-2.46-4.18-3.14-6.43-1.57-5.15-2.52-10.5-4.18-15.62-3.48-10.73-2.59-21.67-2.16-32.62.11-2.73.3-5.45.27-8.18-.03-2.27-.92-4.67-.42-6.78,3.04-12.74,5.83-25.56,11.53-37.52,4.32-9.06,8.15-18.31,15.68-25.47,2.28-2.17,3.33-5.61,5.05-8.4,1.03-1.67,2.04-3.49,3.47-4.77,4.64-4.15,9.43-8.14,14.26-12.07,6.8-5.54,14.05-10.37,22.63-12.72,7.83-2.14,15.75-4,23.6-6.08,13.49-3.57,27.09-5.08,40.96-2.65,8.78,1.54,17.4,3.53,25.36,7.77,8.57,4.56,17,9.41,25.79,13.51,11.52,5.38,27.3,19.27,37.7,32.5.23.3.68.7.99.91,6.01,4.09,8.46,10.76,11.91,16.69.53.92.74,2.51.54,3.55-.93,4.94,1.09,8.73,4.72,11.69,4.16,3.38,5.18,7.99,5.8,12.87,1.41,11,1.67,22.13.83,33.19-.26,3.41-.64,6.84-1.45,10.14-1.95,7.89-4.04,15.75-6.45,23.5-2.31,7.42-4.91,14.75-10.75,20.49-2.62,2.58-5.08,5.31-7.15,8.35-8.43,12.33-19.48,21.66-32.47,28.42-8.06,4.2-16.66,7.37-25.08,10.87-3.59,1.5-7.22,3.17-10.99,3.89-7.42,1.4-14.94,2.34-22.45,3.16-2.57.28-5.23-.42-7.86-.58-2.21-.14-4.42-.22-6.63-.19-1.97.03-4.02.7-5.88.33-7.64-1.53-15.23-3.31-22.83-5.07-4.83-1.12-9.66-2.27-14.44-3.58-1.47-.4-2.8-1.34-4.15-2.1-1.21-.68-2.33-1.52-3.55-2.2-2.88-1.6-5.81-3.1-8.68-4.72-2.6-1.47-5.09-3.13-7.73-4.52-2.63-1.39-4.83-.7-6.69,1.74-1.76,2.31,0,3.81,1.15,5.5,2.18,3.2,4.32,6.44,6.46,9.66,1.05,1.59,2.03,3.22,3.13,4.78,4.1,5.86,10.56,8.1,16.74,10.71,3.5,1.48,4.05,2.34,3.89,6.16-.08,1.96,0,4.02.55,5.87.3,1.01,1.69,2.33,2.66,2.39,2.95.17,5.84.01,7.27,3.69.72-.9,1.06-1.47,1.54-1.88,1.86-1.61,3.12-4.52,6.49-3.07.37.16,1.17-.19,1.5-.55,2.69-2.91,5.79-3.39,9.43-2.02,1.29.49,2.81.84,4.14.65,4.65-.65,9.08.11,13.54,1.32,2.21.6,4.65,1.27,6.82.89,6.13-1.06,12.23-2.39,18.22-4.07,9.81-2.75,19.54-5.81,29.27-8.85,5.38-1.68,8.75-.69,12.03,4.05.86,1.24,1.92,2.14,3.28,1.42,1.02-.54,2.12-1.64,2.4-2.69.91-3.38.73-6.74-.86-9.98-.95-1.93.04-3.78,2.18-4.05s4.25-.68,6.22-1.45c.94-.37,2.05-1.68,2.11-2.62.1-1.73.97-2.37,2.31-2.77,1.59-.46,3.19-.91,4.82-1.18,3.96-.65,4.84-1.84,4.59-5.86-.07-1.12.16-2.67.89-3.35,6.99-6.64,14.21-13.14,19.26-21.4,3.31-5.41,7.06-6.45,12.77-4.48,4.7,1.63,5.19,1.13,7.54-3.4.9-1.73,2.12-2.56,4.11-2.65,2.23-.1,4.46-.47,6.66-.87.64-.12,1.55-.64,1.72-1.17.85-2.67,1.53-5.4,2.2-8.12.41-1.66.48-3.45,1.13-5.01,1.41-3.4-.3-7.24-3.81-8.35-1.05-.33-2.14-.58-3.15-1.01-.66-.28-1.59-.71-1.75-1.25-.84-2.98-2.03-6.02-2.06-9.04-.04-3.61.99-7.22,1.53-10.84.6-4.04,2.08-8.19-1.49-11.76-.31-.31-.07-1.84.34-2.09,2.25-1.37,1.72-3.63,1.94-5.7.23-2.22.36-4.44.26-6.67-.2-4.73.39-9.65-.43-14.3-.96-5.45-3.17-10.68-4.08-16.14-1.26-7.55-4.14-14.48-7.11-21.39-2.35-5.48-4.7-11.02-7.65-16.19-2.93-5.13-6.6-9.83-9.97-14.71-.32-.47-.81-.83-1.21-1.25-3.07-3.24-7.29-5.51-8.53-10.29-.11-.41-.64-.71-1-1.04-3.8-3.43-7.61-6.83-11.39-10.28-2.56-2.33-4.82-5.12-7.67-7.01-13.97-9.26-28.81-16.76-44.92-21.63C167.41,2.38,159.18-.05,150.55,0c-6.63.04-13.3.25-19.86,1.12-5.31.7-10.54,2.3-15.69,3.85-4,1.2-4.7,2.75-4.21,6.9.06.48,0,.97,0,1.3-5.18,1.2-10.22,2.19-15.14,3.6-1.96.56-2.93.27-4.1-1.34-2.27-3.12-3.68-3.44-7.27-1.86-3.26,1.43-6.41,3.13-9.65,4.61-12.18,5.54-22.22,14.08-32.48,22.44-5.99,4.88-10.06,11.12-13.82,17.44-3.27,5.49-6.43,10.97-10.25,16.12-1.44,1.94-1.75,4.71-2.6,7.09-.52,1.47-.99,2.96-1.65,4.37-.66,1.42-1.8,2.66-2.25,4.13-1.67,5.38-3.18,10.81-4.67,16.25-.93,3.42-3.99,16.57-5.79,24.13C.37,133.27,0,136.45,0,139.65c0,5.35,0,13.2,0,13.68,1.49,6.8,4.09,21.28,4.23,21.76Zm266.86,14.52c3.55,1.33,5.69,3.82,5.33,5.88-.47,2.62-2.62,4.26-6.41,4.54.36-3.45.71-6.83,1.09-10.42Zm-6.59,17.6c-.29.33-1.62.07-2.25-.3-.48-.28-.89-1.21-.81-1.78.1-.77.58-1.58,1.13-2.17.61-.65,1.47-1.06,2.22-1.57.41.85.82,1.7,1.26,2.62-.54,1.2-.83,2.38-1.55,3.2Z"/><path class="cls-1" d="m119.38,162.11c.49,10.88.71,21.79,1.62,32.63.37,4.44,4.19,6.6,8.18,8.38,1.97.88,3.27,3.26,4.88,4.97-2.14.85-4.28,2.41-6.43,2.44-14.19.19-28.39-.02-42.58.09-2.67.02-5.86.63-5.93-2.75-.03-1.51,2.9-3.96,4.89-4.5,10.29-2.79,11.55-3.96,12.61-14.41.31-3.06.54-6.14.54-9.22.04-33.59.03-67.19,0-100.78,0-2.39-.31-4.79-.31-7.18-.01-6.94-2.68-11.33-10.21-12.29-1.71-.22-3.1-2.94-4.63-4.52,1.51-1.09,2.88-2.5,4.55-3.21,9.06-3.88,18.18-7.65,27.33-11.33,1.94-.78,4.09-1.01,6.15-1.5.37,2.04,1.1,4.1,1.03,6.12-.3,8.9-1.15,17.78-1.21,26.68-.18,25.54-.09,51.08,0,76.61,0,1.56.85,3.12,1.3,4.68,1.71-.51,3.85-.54,5.06-1.61,9.07-8.09,18.14-16.2,26.85-24.67,6.01-5.84,5.18-7.67-2.71-10.43-1.81-.63-2.83-3.53-4.22-5.39,1.67-.73,3.33-2.06,5.01-2.08,13.47-.18,26.95-.2,40.42-.01,1.57.02,3.12,1.63,4.68,2.5-1.22,1.66-2.27,4.6-3.68,4.79-21.69,2.83-33.87,20.27-49.74,32-2.19,1.62-1.85,3.24-.04,5.09,12.32,12.61,24.53,25.33,36.87,37.92,6.44,6.57,14.37,10.37,23.41,11.9.84.14,2.02,0,2.47.49,1.35,1.48,2.41,3.22,3.59,4.86-1.54.8-3.08,2.29-4.62,2.29-14.71-.02-29.42-.32-44.13-.46-2.04-.02-4.13.73-6.11.48-1.65-.21-3.18-1.38-4.77-2.13.78-1.58,1.14-3.75,2.41-4.65,6.01-4.28,6.46-4.82,1.55-10.34-8.86-9.98-18.07-19.65-27.26-29.33-1.28-1.35-3.24-2.06-4.89-3.06-.65.31-1.29.62-1.94.92Z"/></g></svg>