<?xml version="1.0" encoding="UTF-8"?><svg id="Layer_2" xmlns="http://www.w3.org/2000/svg" width="237.11" height="89.06" viewBox="0 0 237.11 89.06"><defs><style>.cls-1{fill:#fff;stroke-width:0px;}</style></defs><g id="Layer_1-2"><path class="cls-1" d="m0,58.22v-.18c0,.11,0,.18,0,.18Z"/><path class="cls-1" d="m63.2,65.45c.24,5.28.34,10.57.79,15.84.18,2.15,2.03,3.2,3.97,4.07.96.43,1.59,1.58,2.37,2.41-1.04.41-2.08,1.17-3.12,1.18-6.89.09-13.78-.01-20.67.04-1.3.01-2.85.31-2.88-1.33-.01-.73,1.41-1.92,2.37-2.18,4.99-1.35,5.61-1.92,6.12-6.99.15-1.49.26-2.98.26-4.47.02-16.31.01-32.61,0-48.92,0-1.16-.15-2.32-.15-3.48,0-3.37-1.3-5.5-4.96-5.96-.83-.1-1.5-1.43-2.25-2.19.73-.53,1.4-1.21,2.21-1.56,4.4-1.89,8.82-3.71,13.26-5.5.94-.38,1.99-.49,2.98-.73.18.99.53,1.99.5,2.97-.14,4.32-.56,8.63-.59,12.95-.09,12.4-.04,24.79,0,37.19,0,.76.41,1.51.63,2.27.83-.25,1.87-.26,2.45-.78,4.4-3.92,8.8-7.86,13.03-11.97,2.92-2.84,2.51-3.72-1.31-5.06-.88-.31-1.37-1.71-2.05-2.62.81-.35,1.62-1,2.43-1.01,6.54-.09,13.08-.1,19.62,0,.76.01,1.52.79,2.27,1.21-.59.81-1.1,2.23-1.78,2.32-10.53,1.37-16.44,9.84-24.14,15.53-1.06.79-.9,1.57-.02,2.47,5.98,6.12,11.91,12.3,17.9,18.41,3.12,3.19,6.97,5.03,11.36,5.78.41.07.98,0,1.2.24.65.72,1.17,1.56,1.74,2.36-.75.39-1.5,1.11-2.24,1.11-7.14,0-14.28-.16-21.42-.22-.99,0-2,.36-2.97.23-.8-.1-1.54-.67-2.31-1.03.38-.77.55-1.82,1.17-2.26,2.92-2.08,3.14-2.34.75-5.02-4.3-4.84-8.77-9.54-13.23-14.24-.62-.66-1.57-1-2.37-1.48-.31.15-.63.3-.94.45Z"/><path class="cls-1" d="m157.68,61.74c0,5.48-.04,10.96.02,16.44.04,3.24,1.56,5.34,4.95,5.81.57.08,1.28.17,1.63.54.58.6.93,1.43,1.38,2.17-.66.37-1.29.98-1.98,1.05-1.31.13-2.65-.11-3.98-.1-5.72.03-11.45.16-17.17.1-1.14-.01-3.05-.46-3.27-1.13-.59-1.84,1.21-2.14,2.56-2.56,4.23-1.3,5.31-2.6,5.35-7.17.08-9.4,0-18.8.06-28.19.01-1.89-.76-2.53-2.53-2.43-1.16.07-2.37.15-3.47-.11-.68-.16-1.69-.96-1.68-1.47,0-.72.74-2,1.27-2.06,5.44-.59,6.48-3.85,6.84-8.82.59-8.05,4.21-15.15,9.63-21.18,4.12-4.59,9.18-7.72,15.46-8.19,2.09-.16,4.3.28,6.34.86,2.3.66,3.56,2.97,3.33,5.25-.22,2.21-2.02,4.04-4.43,4.43-2.75.45-5.21-.08-7.52-1.78-3.84-2.84-6.65-2.34-9.57,1.45-2.46,3.19-3.1,6.94-3.23,10.79-.13,4.07.04,8.15-.06,12.22-.05,2.12.85,2.75,2.85,2.66,2.74-.12,5.49,0,8.23-.03,2.64-.03,2.61,1.89,2.58,3.62-.04,1.68-.5,3.07-2.81,2.84-2.72-.27-5.48-.15-8.22-.35-2.19-.16-3.14.45-3.03,2.88.2,4.15.05,8.31.05,12.47.14,0,.27,0,.41,0Z"/><path class="cls-1" d="m192.37,63.38c0,4.91-.11,9.82.03,14.72.11,3.7,1.12,4.76,4.65,5.8.8.23,1.69.38,2.31.87.5.39.94,1.27.85,1.84-.08.46-.98,1.12-1.53,1.12-2.41.03-4.82-.23-7.23-.22-4.98.04-9.95.24-14.93.24-.92,0-1.83-.64-2.75-.99.73-.85,1.35-2.28,2.21-2.45,4.19-.81,5.81-3.26,5.8-7.37-.02-9.48.12-18.95.18-28.43.01-1.68-.86-2.38-2.53-2.26-1.08.07-2.21.19-3.23-.08-.75-.2-1.78-.91-1.87-1.52-.1-.63.74-2.01,1.24-2.04,6.28-.48,6.34-4.96,6.96-9.68,1.41-10.73,6.61-19.45,15.71-25.44,4.39-2.89,9.41-4.15,14.76-2.51,2.81.86,4.28,2.78,4.09,5.46-.19,2.56-1.89,4.14-4.76,4.59-2.82.44-5.21-.44-7.47-2.04-3.59-2.54-6.91-2.2-9.09,1.58-1.65,2.86-2.82,6.23-3.24,9.5-.57,4.51-.17,9.13-.31,13.7-.06,1.99.71,2.62,2.64,2.54,2.82-.13,5.66,0,8.48-.03,2.76-.02,2.67,1.89,2.65,3.8-.03,1.99-.91,2.8-2.98,2.64-2.81-.23-5.65-.15-8.47-.32-1.73-.11-2.35.5-2.32,2.26.09,4.91.03,9.81.03,14.72.03,0,.06,0,.09,0Z"/><path class="cls-1" d="m224.17,68.56c-3.41,0-6.82.03-10.23-.02-1.51-.02-2.01.56-1.95,2.09.23,5.94,4.8,10.93,10.71,11.04,3.02.05,6.07-.6,9.07-1.14,1.2-.21,2.31-.49,2.49.99.17,1.38,1.63,3.02-.37,4.22-9.71,5.86-23.22,1.43-27.08-9.15-2.95-8.09-2.12-16.07,2.39-23.45,3.36-5.48,10.04-8.03,16.51-6.66,5.43,1.15,9.92,6.47,10.84,12.96.3,2.13.45,4.29.56,6.45.1,1.83-.76,2.72-2.71,2.67-3.41-.09-6.82-.02-10.23-.02h0Zm-12-5.57c5.72,0,11.27.03,16.81-.06.49,0,1.31-.77,1.39-1.27.55-3.67-2.92-8.58-6.47-9.6-5.44-1.56-11.04,2.46-11.73,10.93Z"/><path class="cls-1" d="m111.26,54.12c-2.32-3.86-1.98-4.99,2.17-6.51,4.15-1.52,8.47-2.05,12.72-.83,5.81,1.66,8.89,6.32,9.14,13.91.27,8.14.21,16.29.19,24.43,0,.56-.95,1.13-1.46,1.68-.04.04-.16,0-.24.01q-3.93.29-4.69-3.88c-.87.66-1.64,1.17-2.32,1.76-5.15,4.49-13.06,4.13-17.21-.81-4.44-5.28-2.86-14.81,3.08-18.75,3.8-2.52,8.1-3.3,12.52-3.63,3.62-.27,3.98-.81,2.86-4.32-1.27-4-4.26-5.94-8.68-5.22-2.66.43-5.23,1.37-8.07,2.15Zm17.62,13.07c-4.58-.7-8.37-.18-11.75,2.02-3.2,2.09-4.1,6.18-2.42,9.7,1.34,2.82,4.35,4.16,7.79,2.65,2.02-.88,4.33-2.7,5.05-4.64,1.1-2.96.94-6.39,1.33-9.74Z"/><path class="cls-1" d="m106.98,33.61c-3.39,1.05-4.29.71-5.53-1.88-.91-1.91-1.79-3.83-2.69-5.74-.24.04-.49.08-.73.12,0,1.95-.03,3.91.01,5.86.03,1.41-.49,2.17-1.99,2.23-1.53.05-2.06-.68-2.06-2.11.02-9.88.02-19.76,0-29.64,0-1.41.51-2.14,2.06-2.1,1.56.04,1.99.83,1.98,2.21-.02,4.9-.01,9.8.01,14.69,0,.86.12,1.72.69,2.66.81-1.51,1.54-3.07,2.47-4.5.5-.77,1.25-1.55,2.07-1.89.65-.27,1.58.14,2.39.25-.14.75-.03,1.71-.45,2.23-3.71,4.56-3.56,9.06-.15,13.7.81,1.1,1.24,2.48,1.93,3.91Z"/><path class="cls-1" d="m91.33,24.01c0,2.5.01,4.99,0,7.49-.02,2.57-1.02,3.24-3.4,2.54-.83-.24-1.84-.28-2.66-.04-2.28.68-4.08.19-4.83-2.09-1.77-5.33-1.82-10.79-.06-16.12.81-2.47,2.86-3.05,5.25-2.19.66.24,1.53.2,2.22.01,2.6-.72,3.47-.1,3.48,2.67.01,2.58,0,5.16,0,7.74Zm-8.09-.38c.11,1.78.08,3.46.39,5.08.13.67.91,1.55,1.53,1.68.45.1,1.61-.85,1.63-1.37.16-3.44.18-6.89.04-10.33-.02-.55-1.1-1.53-1.59-1.47-.61.07-1.46.95-1.59,1.6-.33,1.61-.3,3.29-.41,4.82Z"/><path class="cls-1" d="m122.34,23.9c.41-2.25.65-4.48,1.25-6.61.8-2.82,2.83-4.21,5.5-4.15,2.37.05,4.92,1.68,5.16,4.25.39,4.24.41,8.58-.02,12.82-.27,2.67-2.94,4.29-5.42,4.26-2.53-.04-4.42-1.43-5.21-4.21-.59-2.05-.85-4.19-1.27-6.35Zm8.76.11c-.19-1.82-.28-3.65-.63-5.42-.11-.58-.86-1.35-1.41-1.43-.46-.07-1.49.73-1.5,1.18-.13,3.57-.13,7.16,0,10.73.02.49,1.01,1.35,1.48,1.3.53-.05,1.29-.85,1.42-1.45.36-1.6.45-3.26.64-4.91Z"/><path class="cls-1" d="m71.62,20.68c0-3.65-.05-7.31.02-10.96.03-1.59-.34-2.57-2.2-2.4-1.32.12-2.54-.32-2.12-1.87.2-.74,1.33-1.67,2.09-1.73,2.89-.2,5.81-.08,8.71-.08,1.31,0,2.26.33,2.27,1.94.01,1.55-.93,1.83-2.11,1.73-2.08-.17-2.49.93-2.47,2.73.06,7.22.02,14.45.03,21.67,0,1.36-.11,2.47-1.94,2.5-1.52.02-2.32-.37-2.29-2.08.07-3.82.02-7.64.02-11.46Z"/><path class="cls-1" d="m115.26,25.42c0-1.74.54-3.73-.1-5.19-1.87-4.21.1-8.2.13-12.27.01-1.57.18-3.15.46-4.69.49-2.67,3.45-4.11,5.79-2.74.59.35.95,1.49.97,2.27,0,.59-.63,1.61-1.12,1.7-1.65.3-1.94,1.4-2.01,2.71-.06,1.24,0,2.49-.04,3.74-.04,1.28.21,2.22,1.69,2.61.51.14,1.12,1.06,1.11,1.62,0,.54-.69,1.45-1.19,1.54-1.66.29-1.62,1.4-1.62,2.6,0,3.91,0,7.81,0,11.72,0,1.51.2,3.17-2.11,3.14-2.16-.03-1.95-1.6-1.96-3.01-.01-1.91,0-3.82,0-5.73Z"/><path class="cls-1" d="m145.21,13.61c.08,1.49.76,3.21-1.95,3.99-.91.26-1.84,2.11-1.92,3.29-.25,3.56-.13,7.14-.08,10.71.02,1.54-.29,2.59-2.15,2.59-1.85,0-1.91-1.17-1.91-2.51.01-5.32.01-10.64,0-15.95,0-1.3.21-2.35,1.86-2.29,1.91.07,3.83.11,6.14.18Z"/></g></svg>