<?xml version="1.0" encoding="utf-8"?>
<!-- Generator: Adobe Illustrator 27.9.0, SVG Export Plug-In . SVG Version: 6.00 Build 0)  -->
<svg version="1.1" id="Layer_2_00000017512782529107277540000000445108577299443900_"
	 xmlns="http://www.w3.org/2000/svg" xmlns:xlink="http://www.w3.org/1999/xlink" x="0px" y="0px" viewBox="0 0 222.6 226.1"
	 style="enable-background:new 0 0 222.6 226.1;" xml:space="preserve">
<style type="text/css">
	.st0{fill:#EBEBEB;}
	.st1{fill:#02785A;}
	.st2{fill:#FFFFFF;}
</style>
<g id="Layer_1-2">
	<g>
		<path class="st0" d="M111.5,174.1c47.2,0.9,86.7-39.5,87.2-85.9c0.5-47.9-39.6-88-87-88.1C64-0.1,24.6,40.1,24.5,86.8
			C24.3,134.4,64.5,175,111.5,174.1z"/>
		<path class="st1" d="M111.5,174.1c-47.1,0.9-87.2-39.7-87.1-87.2C24.6,40.1,64-0.1,111.8,0c47.4,0.1,87.4,40.2,86.9,88.1
			C198.3,134.6,158.8,175,111.5,174.1L111.5,174.1z M111.5,163c41.2,0.8,75.9-34.7,76.2-75.2c0.4-41.3-34.7-76.8-76.1-76.8
			c-41.4,0-76.2,35.1-76.2,76.2C35.4,128.7,70.6,163.7,111.5,163L111.5,163z"/>
		<path class="st2" d="M111.5,163c-40.9,0.7-76.1-34.4-76.1-75.8c0-41.1,34.8-76.2,76.2-76.2c41.4,0,76.5,35.6,76.1,76.8
			C187.4,128.3,152.7,163.8,111.5,163L111.5,163z M112.6,141.9c3.8,0,9-0.6,14.1-1.9c10.8-2.7,20-8.3,27.8-16.1
			c11.8-11.7,17.9-25.9,18.3-42.5c0-1-0.2-1.4-1.3-1.4c-3.2,0.1-6.3,0.1-9.5,0c-1.1,0-1.4,0.3-1.4,1.4c-0.1,6.3-1.1,12.5-3.8,18.2
			c-7.8,16.5-20.5,26.8-38.9,29.4c-7.8,1.1-15.5,0.4-23-2.1c-15-4.9-33.2-21-33.3-45.7c0-1-0.3-1.2-1.2-1.2c-3.3,0.1-6.5,0.1-9.8,0
			c-0.9,0-1.2,0.2-1.2,1.1c0.2,6.2,1.1,12.2,2.9,18.2C58.4,119,79.4,142.3,112.6,141.9L112.6,141.9z M87.8,76.6
			c6.2,0.1,10.9-4.4,11-10.6c0.1-6.1-4.4-10.8-10.5-10.9c-6.3-0.1-11,4.4-11.1,10.6C77.2,71.8,81.8,76.5,87.8,76.6z M145.9,65.9
			c0-6.3-4.6-10.8-10.8-10.8c-6.2,0-10.7,4.6-10.7,10.8c0,6.1,4.7,10.7,10.8,10.7C141.2,76.6,145.9,71.9,145.9,65.9L145.9,65.9z"/>
		<path class="st1" d="M112.6,141.9c-33.2,0.4-54.2-22.9-60.3-42.5c-1.8-5.9-2.7-12-2.9-18.2c0-1,0.3-1.2,1.2-1.1
			c3.3,0,6.5,0.1,9.8,0c1,0,1.2,0.2,1.2,1.2c0.2,24.7,18.3,40.8,33.3,45.7c7.5,2.5,15.2,3.2,23,2.1c18.4-2.6,31-12.9,38.9-29.4
			c2.7-5.7,3.8-11.9,3.8-18.2c0-1.1,0.3-1.4,1.4-1.4c3.2,0.1,6.3,0.1,9.5,0c1.1,0,1.4,0.4,1.3,1.4c-0.4,16.6-6.5,30.8-18.3,42.5
			c-7.9,7.8-17,13.4-27.8,16.1C121.6,141.3,116.4,141.9,112.6,141.9L112.6,141.9z"/>
		<path class="st1" d="M87.8,76.6c-6.1-0.1-10.6-4.8-10.5-10.9c0.1-6.2,4.8-10.7,11.1-10.6c6.1,0.1,10.6,4.8,10.5,10.9
			C98.8,72.1,94,76.7,87.8,76.6z"/>
		<path class="st1" d="M145.9,65.9c0,6-4.6,10.7-10.7,10.7c-6.1,0-10.8-4.6-10.8-10.7c0-6.2,4.5-10.8,10.7-10.8
			C141.3,55.1,145.8,59.6,145.9,65.9L145.9,65.9z"/>
	</g>
</g>
<g>
	<path class="st2" d="M9.5,220c-1.7,0-3.3-0.2-4.8-0.7c-1.6-0.4-2.8-1-3.7-1.8l1.7-3.7c0.9,0.6,1.9,1.2,3.2,1.6
		c1.2,0.4,2.5,0.6,3.8,0.6c1,0,1.7-0.1,2.3-0.3c0.6-0.2,1-0.5,1.3-0.8s0.4-0.7,0.4-1.2c0-0.6-0.2-1-0.7-1.3c-0.4-0.3-1-0.6-1.8-0.8
		c-0.7-0.2-1.5-0.4-2.4-0.6c-0.9-0.2-1.7-0.4-2.6-0.7c-0.9-0.3-1.7-0.6-2.4-1.1s-1.3-1-1.7-1.8c-0.4-0.7-0.6-1.6-0.6-2.7
		c0-1.2,0.3-2.3,1-3.3c0.6-1,1.6-1.8,2.9-2.4s3-0.9,4.9-0.9c1.3,0,2.6,0.2,3.9,0.5s2.4,0.8,3.4,1.4l-1.5,3.7
		c-0.9-0.5-1.9-0.9-2.9-1.2c-1-0.3-2-0.4-2.9-0.4c-1,0-1.7,0.1-2.3,0.3c-0.6,0.2-1,0.5-1.3,0.9c-0.3,0.4-0.4,0.8-0.4,1.2
		c0,0.6,0.2,1,0.7,1.3c0.4,0.3,1,0.6,1.7,0.8c0.7,0.2,1.5,0.4,2.4,0.6c0.9,0.2,1.7,0.4,2.6,0.7c0.9,0.3,1.6,0.6,2.4,1.1
		c0.7,0.4,1.3,1,1.8,1.7c0.5,0.7,0.7,1.6,0.7,2.7c0,1.2-0.3,2.3-1,3.2c-0.7,1-1.6,1.8-3,2.4C13.2,219.7,11.5,220,9.5,220z"/>
	<path class="st2" d="M42.1,203.3c1.3,0,2.4,0.3,3.4,0.8c1,0.5,1.8,1.3,2.3,2.3c0.6,1.1,0.8,2.4,0.8,4v9.2H44v-8.5
		c0-1.3-0.3-2.3-0.8-2.9c-0.5-0.6-1.3-0.9-2.2-0.9c-0.7,0-1.3,0.2-1.9,0.5c-0.5,0.3-1,0.8-1.2,1.4c-0.3,0.6-0.4,1.4-0.4,2.4v8.1
		h-4.7v-8.5c0-1.3-0.3-2.3-0.8-2.9c-0.5-0.6-1.3-0.9-2.3-0.9c-0.7,0-1.3,0.2-1.8,0.5c-0.5,0.3-1,0.8-1.3,1.4s-0.5,1.4-0.5,2.4v8.1
		h-4.7v-16.1h4.5v4.4l-0.8-1.3c0.5-1.1,1.3-1.9,2.4-2.5c1-0.6,2.2-0.9,3.5-0.9c1.5,0,2.8,0.4,3.9,1.1s1.9,1.9,2.2,3.4l-1.6-0.4
		c0.5-1.2,1.4-2.2,2.6-3C39.2,203.7,40.5,203.3,42.1,203.3z"/>
	<path class="st2" d="M55.2,201.3c-0.9,0-1.6-0.2-2.1-0.8s-0.8-1.1-0.8-1.9c0-0.7,0.3-1.4,0.8-1.9s1.2-0.8,2.1-0.8
		c0.9,0,1.6,0.2,2.1,0.7c0.5,0.5,0.8,1.1,0.8,1.8c0,0.8-0.3,1.4-0.8,1.9S56.1,201.3,55.2,201.3z M52.9,219.7v-16.1h4.7v16.1H52.9z"
		/>
	<path class="st2" d="M61.9,219.7v-22.3h4.7v22.3H61.9z"/>
	<path class="st2" d="M79,219.9c-1.8,0-3.4-0.4-4.8-1.1c-1.4-0.7-2.5-1.7-3.2-3c-0.8-1.2-1.1-2.7-1.1-4.3c0-1.6,0.4-3,1.1-4.3
		c0.7-1.3,1.8-2.2,3.1-3c1.3-0.7,2.8-1.1,4.4-1.1c1.6,0,3,0.3,4.3,1c1.3,0.7,2.3,1.6,3,2.9c0.7,1.2,1.1,2.7,1.1,4.5
		c0,0.2,0,0.4,0,0.6c0,0.2,0,0.4-0.1,0.6H73.6v-2.7h10.6l-1.8,0.8c0-0.8-0.1-1.6-0.5-2.2c-0.3-0.6-0.8-1.1-1.4-1.5
		c-0.6-0.3-1.3-0.5-2.1-0.5c-0.8,0-1.5,0.2-2.1,0.5c-0.6,0.3-1.1,0.8-1.4,1.5c-0.3,0.6-0.5,1.4-0.5,2.2v0.7c0,0.9,0.2,1.7,0.6,2.3
		c0.4,0.7,0.9,1.2,1.6,1.5c0.7,0.4,1.5,0.5,2.5,0.5c0.8,0,1.6-0.1,2.2-0.4c0.6-0.3,1.2-0.6,1.8-1.2l2.5,2.7
		c-0.7,0.8-1.7,1.5-2.8,1.9C81.7,219.7,80.4,219.9,79,219.9z"/>
	<path class="st2" d="M91.6,225.7c-0.8,0-1.6-0.1-2.5-0.4s-1.5-0.6-2-1.1l1.7-3.4c0.4,0.3,0.8,0.6,1.2,0.8c0.5,0.2,0.9,0.3,1.4,0.3
		c0.6,0,1.2-0.2,1.5-0.5c0.4-0.3,0.7-0.8,1.1-1.5l0.8-2l0.4-0.5l5.8-13.9h4.5l-7.3,17.1c-0.5,1.3-1.1,2.3-1.8,3.1
		c-0.7,0.7-1.4,1.2-2.2,1.5C93.5,225.6,92.6,225.7,91.6,225.7z M94.4,220.3l-7.2-16.8H92l5.6,13.5L94.4,220.3z"/>
	<path class="st2" d="M107.5,219.7v-16.1h4.5v4.6l-0.6-1.4c0.5-1.1,1.2-2,2.3-2.6c1.1-0.6,2.4-0.9,3.9-0.9v4.3
		c-0.2,0-0.4-0.1-0.5-0.1c-0.2,0-0.3,0-0.5,0c-1.3,0-2.4,0.4-3.2,1.1c-0.8,0.7-1.2,1.9-1.2,3.4v7.6H107.5z"/>
	<path class="st2" d="M124.3,219.9c-1.2,0-2.3-0.2-3.2-0.6c-0.9-0.4-1.6-1-2.1-1.8c-0.5-0.7-0.7-1.6-0.7-2.5c0-0.9,0.2-1.8,0.7-2.5
		c0.5-0.7,1.2-1.3,2.2-1.7c1-0.4,2.4-0.6,4-0.6h4.3v2.7h-3.8c-1.1,0-1.9,0.2-2.3,0.5c-0.4,0.4-0.6,0.8-0.6,1.3
		c0,0.6,0.2,1.1,0.7,1.4c0.5,0.3,1.1,0.5,1.9,0.5c0.8,0,1.5-0.2,2.1-0.5s1.1-0.9,1.3-1.7l0.7,2.2c-0.3,1-1,1.8-1.9,2.3
		C126.8,219.6,125.7,219.9,124.3,219.9z M129.2,219.7v-3.2l-0.3-0.7v-5.6c0-1-0.3-1.8-0.9-2.3c-0.6-0.6-1.5-0.8-2.8-0.8
		c-0.9,0-1.7,0.1-2.5,0.4c-0.8,0.3-1.5,0.6-2.1,1.1l-1.7-3.3c0.9-0.6,1.9-1.1,3.2-1.5s2.5-0.5,3.8-0.5c2.5,0,4.4,0.6,5.7,1.7
		c1.4,1.2,2,3,2,5.4v9.2H129.2z"/>
	<path class="st2" d="M137.8,225.5v-22h4.5v3.3l-0.1,4.8l0.3,4.8v9.1H137.8z M147.3,219.9c-1.3,0-2.5-0.3-3.5-0.9
		c-1-0.6-1.8-1.5-2.4-2.7s-0.9-2.8-0.9-4.7c0-1.9,0.3-3.5,0.8-4.7c0.5-1.2,1.3-2.1,2.4-2.7c1-0.6,2.2-0.9,3.6-0.9
		c1.5,0,2.9,0.3,4.1,1c1.2,0.7,2.2,1.7,2.9,2.9s1.1,2.7,1.1,4.4c0,1.7-0.4,3.2-1.1,4.4c-0.7,1.2-1.7,2.2-2.9,2.9
		S148.8,219.9,147.3,219.9z M146.5,216.1c0.8,0,1.5-0.2,2.1-0.5c0.6-0.4,1.1-0.9,1.5-1.5c0.4-0.7,0.6-1.5,0.6-2.4
		c0-0.9-0.2-1.7-0.6-2.4c-0.4-0.7-0.9-1.2-1.5-1.5s-1.3-0.5-2.1-0.5c-0.8,0-1.5,0.2-2.1,0.5s-1.1,0.9-1.5,1.5s-0.6,1.5-0.6,2.4
		c0,0.9,0.2,1.7,0.6,2.4s0.9,1.2,1.5,1.5C145,215.9,145.7,216.1,146.5,216.1z"/>
	<path class="st2" d="M158.5,225.5v-22h4.5v3.3l-0.1,4.8l0.3,4.8v9.1H158.5z M168,219.9c-1.3,0-2.5-0.3-3.5-0.9
		c-1-0.6-1.8-1.5-2.4-2.7s-0.9-2.8-0.9-4.7c0-1.9,0.3-3.5,0.8-4.7c0.5-1.2,1.3-2.1,2.4-2.7c1-0.6,2.2-0.9,3.6-0.9
		c1.5,0,2.9,0.3,4.1,1c1.2,0.7,2.2,1.7,2.9,2.9s1.1,2.7,1.1,4.4c0,1.7-0.4,3.2-1.1,4.4c-0.7,1.2-1.7,2.2-2.9,2.9
		S169.5,219.9,168,219.9z M167.2,216.1c0.8,0,1.5-0.2,2.1-0.5c0.6-0.4,1.1-0.9,1.5-1.5c0.4-0.7,0.6-1.5,0.6-2.4
		c0-0.9-0.2-1.7-0.6-2.4c-0.4-0.7-0.9-1.2-1.5-1.5s-1.3-0.5-2.1-0.5c-0.8,0-1.5,0.2-2.1,0.5s-1.1,0.9-1.5,1.5s-0.6,1.5-0.6,2.4
		c0,0.9,0.2,1.7,0.6,2.4s0.9,1.2,1.5,1.5C165.7,215.9,166.4,216.1,167.2,216.1z"/>
	<path class="st2" d="M186.8,219.9c-1.7,0-3.2-0.4-4.5-1.1c-1.3-0.7-2.4-1.7-3.1-3s-1.1-2.7-1.1-4.3c0-1.6,0.4-3.1,1.1-4.3
		s1.8-2.2,3.1-2.9c1.3-0.7,2.8-1.1,4.5-1.1c1.7,0,3.2,0.4,4.6,1.1c1.3,0.7,2.4,1.7,3.1,2.9s1.1,2.7,1.1,4.3c0,1.6-0.4,3.1-1.1,4.3
		s-1.8,2.2-3.1,2.9C190.1,219.6,188.6,219.9,186.8,219.9z M186.8,216.1c0.8,0,1.5-0.2,2.1-0.5c0.6-0.3,1.1-0.9,1.5-1.5
		s0.6-1.5,0.6-2.4c0-0.9-0.2-1.7-0.6-2.4s-0.9-1.2-1.5-1.5s-1.3-0.5-2.1-0.5s-1.5,0.2-2.1,0.5c-0.6,0.3-1.1,0.9-1.5,1.5
		s-0.6,1.5-0.6,2.4c0,0.9,0.2,1.7,0.6,2.4s0.9,1.2,1.5,1.5C185.4,215.9,186.1,216.1,186.8,216.1z"/>
	<path class="st2" d="M198.8,219.7v-16.1h4.5v4.6l-0.6-1.4c0.5-1.1,1.2-2,2.3-2.6c1.1-0.6,2.4-0.9,3.9-0.9v4.3
		c-0.2,0-0.4-0.1-0.5-0.1c-0.2,0-0.3,0-0.5,0c-1.3,0-2.4,0.4-3.2,1.1c-0.8,0.7-1.2,1.9-1.2,3.4v7.6H198.8z"/>
	<path class="st2" d="M210.3,207.5v-3.6h11.2v3.6H210.3z M218.8,219.9c-1.9,0-3.4-0.5-4.4-1.5c-1.1-1-1.6-2.4-1.6-4.3V200h4.7V214
		c0,0.7,0.2,1.2,0.5,1.6c0.3,0.4,0.8,0.6,1.4,0.6c0.8,0,1.4-0.2,1.9-0.6l1.2,3.3c-0.5,0.3-1,0.6-1.7,0.8
		C220.2,219.8,219.5,219.9,218.8,219.9z"/>
</g>
</svg>
