<?xml version="1.0" encoding="UTF-8"?>
<svg id="Layer_2" data-name="Layer 2" xmlns="http://www.w3.org/2000/svg" viewBox="0 0 174.29 174.06">
  <defs>
    <style>
      .cls-1 {
        fill: #fff;
      }

      .cls-1, .cls-2, .cls-3 {
        stroke-width: 0px;
      }

      .cls-2 {
        fill: #ebebeb;
      }

      .cls-3 {
        fill: #02785a;
      }
    </style>
  </defs>
  <g id="Layer_1-2" data-name="Layer 1">
    <g>
      <path class="cls-2" d="m87.08,174.05c47.21.9,86.74-39.49,87.21-85.95C174.77,40.23,134.71.09,87.34,0,39.54-.09.16,40.13,0,86.8c-.17,47.56,40,88.15,87.08,87.25Z"/>
      <path class="cls-3" d="m87.08,174.05C40,174.94-.17,134.36,0,86.8.16,40.13,39.54-.09,87.34,0c47.38.09,87.43,40.23,86.95,88.1-.47,46.46-40,86.85-87.21,85.95Zm-.02-11.04c41.21.8,75.91-34.68,76.25-75.19.35-41.27-34.72-76.82-76.13-76.84-41.38-.02-76.25,35.08-76.23,76.19.02,41.48,35.17,76.57,76.11,75.83Z"/>
      <path class="cls-1" d="m87.06,163c-40.94.74-76.09-34.35-76.11-75.83-.02-41.11,34.85-76.2,76.23-76.19,41.41.02,76.48,35.57,76.13,76.84-.34,40.5-35.04,75.98-76.25,75.19Zm1.07-21.1c3.8,0,9.01-.57,14.13-1.85,10.81-2.72,19.97-8.26,27.84-16.06,11.81-11.71,17.9-25.87,18.28-42.51.02-1.04-.2-1.43-1.33-1.4-3.17.08-6.34.08-9.51,0-1.1-.03-1.35.32-1.37,1.38-.08,6.31-1.11,12.49-3.83,18.2-7.84,16.51-20.52,26.79-38.89,29.42-7.81,1.12-15.5.39-23-2.07-15.02-4.92-33.15-20.98-33.32-45.7,0-.99-.29-1.24-1.25-1.22-3.26.06-6.51.05-9.77,0-.87-.01-1.21.16-1.18,1.13.19,6.19,1.07,12.25,2.91,18.18,6.1,19.63,27.11,42.87,60.28,42.5Zm-24.77-65.31c6.17.1,10.92-4.45,11.01-10.56.08-6.12-4.41-10.81-10.49-10.93-6.27-.13-10.96,4.37-11.06,10.61-.1,6.05,4.49,10.78,10.54,10.88Zm58.05-10.73c-.03-6.27-4.56-10.79-10.75-10.76-6.18.03-10.74,4.63-10.72,10.84.02,6.06,4.66,10.65,10.78,10.65,6.05,0,10.73-4.69,10.7-10.73Z"/>
      <path class="cls-3" d="m88.13,141.9c-33.17.37-54.18-22.87-60.28-42.5-1.84-5.93-2.71-11.99-2.91-18.18-.03-.98.31-1.15,1.18-1.13,3.26.04,6.51.05,9.77,0,.96-.02,1.24.23,1.25,1.22.17,24.72,18.3,40.78,33.32,45.7,7.51,2.46,15.2,3.19,23,2.07,18.37-2.63,31.05-12.91,38.89-29.42,2.71-5.71,3.75-11.89,3.83-18.2.01-1.06.26-1.4,1.37-1.38,3.17.08,6.34.08,9.51,0,1.13-.03,1.35.36,1.33,1.4-.38,16.63-6.47,30.79-18.28,42.51-7.87,7.8-17.03,13.35-27.84,16.06-5.12,1.29-10.33,1.84-14.13,1.85Z"/>
      <path class="cls-3" d="m63.36,76.59c-6.05-.1-10.64-4.84-10.54-10.88.1-6.24,4.79-10.74,11.06-10.61,6.08.12,10.57,4.81,10.49,10.93-.08,6.1-4.83,10.66-11.01,10.56Z"/>
      <path class="cls-3" d="m121.41,65.86c.03,6.04-4.64,10.74-10.7,10.73-6.12,0-10.76-4.6-10.78-10.65-.02-6.21,4.54-10.81,10.72-10.84,6.19-.03,10.72,4.5,10.75,10.76Z"/>
    </g>
  </g>
</svg>